<svg xmlns="http://www.w3.org/2000/svg" width="254.855" height="248.77" viewBox="0 0 254.855 248.77">
  <g id="Group_5" data-name="Group 5" transform="translate(-0.001 -0.004)">
    <path id="Path_89" data-name="Path 89" d="M461.716,206.964H393.043a5.91,5.91,0,0,0-5.9,5.9V365.492l-.787.24-16.846,5.159a3.151,3.151,0,0,1-3.931-2.09L315.465,205.118a3.149,3.149,0,0,1,2.09-3.931l25.96-7.949,75.26-23.036,25.96-7.949a3.144,3.144,0,0,1,3.931,2.086l12.809,41.839Z" transform="translate(-299.922 -151.014)" fill="#f2f2f2"/>
    <path id="Path_90" data-name="Path 90" d="M452.961,189.076l-15.438-50.425a6.687,6.687,0,0,0-8.354-4.439l-36.5,11.172-75.256,23.04-36.5,11.176a6.7,6.7,0,0,0-4.439,8.354l52.763,172.333a6.7,6.7,0,0,0,6.4,4.734,6.607,6.607,0,0,0,1.956-.3l25.02-7.658.787-.244V356l-.787.24-25.252,7.733a5.909,5.909,0,0,1-7.371-3.915L277.232,187.722a5.895,5.895,0,0,1,3.915-7.371l36.5-11.176L392.9,146.14l36.5-11.176a5.9,5.9,0,0,1,7.371,3.915l15.367,50.2.244.787h.819Z" transform="translate(-276.182 -133.913)" fill="#3f3d56"/>
    <path id="Path_91" data-name="Path 91" d="M385.588,192.633a3.548,3.548,0,0,1-3.389-2.505l-5.069-16.556a3.541,3.541,0,0,1,2.35-4.423l69.235-21.2a3.545,3.545,0,0,1,4.423,2.35l5.069,16.556a3.546,3.546,0,0,1-2.35,4.423l-69.235,21.2A3.533,3.533,0,0,1,385.588,192.633Z" transform="translate(-337.31 -142.331)" fill="#318e99"/>
    <circle id="Ellipse_14" data-name="Ellipse 14" cx="7.87" cy="7.87" r="7.87" transform="translate(66.959 1.952)" fill="#318e99"/>
    <circle id="Ellipse_15" data-name="Ellipse 15" cx="4.984" cy="4.984" r="4.984" transform="translate(69.846 4.839)" fill="#fff"/>
    <path id="Path_92" data-name="Path 92" d="M668.672,460.151H535.663a3.349,3.349,0,0,1-3.345-3.345V297.432a3.349,3.349,0,0,1,3.345-3.345H668.672a3.349,3.349,0,0,1,3.345,3.345V456.806A3.349,3.349,0,0,1,668.672,460.151Z" transform="translate(-431.524 -231.054)" fill="#e6e6e6"/>
    <path id="Path_93" data-name="Path 93" d="M585.343,274.087H502.508a6.7,6.7,0,0,0-6.69,6.69V441.253l.787-.24V280.777a5.91,5.91,0,0,1,5.9-5.9h83.079Zm72.21,0H502.508a6.7,6.7,0,0,0-6.69,6.69V461.008a6.7,6.7,0,0,0,6.69,6.69H657.553a6.7,6.7,0,0,0,6.69-6.69V280.777A6.7,6.7,0,0,0,657.553,274.087Zm5.9,186.921a5.91,5.91,0,0,1-5.9,5.9H502.508a5.91,5.91,0,0,1-5.9-5.9V280.777a5.91,5.91,0,0,1,5.9-5.9H657.553a5.91,5.91,0,0,1,5.9,5.9Z" transform="translate(-409.387 -218.924)" fill="#3f3d56"/>
    <path id="Path_94" data-name="Path 94" d="M684.767,280.485H612.36a3.546,3.546,0,0,1-3.542-3.542V259.629a3.546,3.546,0,0,1,3.542-3.542h72.407a3.546,3.546,0,0,1,3.542,3.542v17.315A3.546,3.546,0,0,1,684.767,280.485Z" transform="translate(-477.919 -208.007)" fill="#318e99"/>
    <circle id="Ellipse_16" data-name="Ellipse 16" cx="7.87" cy="7.87" r="7.87" transform="translate(162.773 33.52)" fill="#318e99"/>
    <circle id="Ellipse_17" data-name="Ellipse 17" cx="4.794" cy="4.794" r="4.794" transform="translate(165.85 36.596)" fill="#fff"/>
  </g>
</svg>
