<svg xmlns="http://www.w3.org/2000/svg" width="349.971" height="151.819" viewBox="0 0 349.971 151.819">
  <g id="Group_9" data-name="Group 9" transform="translate(0 0)">
    <path id="Path_232" data-name="Path 232" d="M618.56,412.839H413.23a3.287,3.287,0,1,0,0,6.575h5.816v78.643a3.287,3.287,0,1,0,6.575,0l.05-78.642h164.8l15.195,78.642a3.287,3.287,0,1,0,6.575,0l.956-78.642h5.365a3.287,3.287,0,1,0,0-6.575Z" transform="translate(-302.876 -350.209)" fill="#ccc"/>
    <path id="Path_233" data-name="Path 233" d="M443.058,371.842v13.921H408.181a6.965,6.965,0,0,1-.484-13.921q.242-.008.484,0Z" transform="translate(-297.112 -323.861)" fill="#f2f2f2"/>
    <path id="Path_234" data-name="Path 234" d="M442.566,385.087a.536.536,0,0,1-.535.535H406.212a7.335,7.335,0,0,1,0-14.67h35.819a.535.535,0,1,1,0,1.071H406.212a6.264,6.264,0,0,0,0,12.529h35.819a.536.536,0,0,1,.535.535Z" transform="translate(-295.764 -323.291)" fill="#318e99"/>
    <path id="Path_235" data-name="Path 235" d="M451.144,380.455H413.665a.107.107,0,0,1,0-.214h37.481a.107.107,0,0,1,0,.214Z" transform="translate(-305.198 -329.26)" fill="#ccc"/>
    <path id="Path_236" data-name="Path 236" d="M451.144,387.647H413.665a.107.107,0,0,1,0-.214h37.481a.107.107,0,0,1,0,.214Z" transform="translate(-305.198 -333.882)" fill="#ccc"/>
    <path id="Path_237" data-name="Path 237" d="M451.144,394.838H413.665a.107.107,0,0,1,0-.214h37.481a.107.107,0,0,1,0,.214Z" transform="translate(-305.198 -338.504)" fill="#ccc"/>
    <path id="Path_238" data-name="Path 238" d="M451.144,402.03H413.665a.107.107,0,0,1,0-.214h37.481a.107.107,0,0,1,0,.214Z" transform="translate(-305.198 -343.125)" fill="#ccc"/>
    <path id="Path_239" data-name="Path 239" d="M424.66,330.8v13.921H389.783A6.965,6.965,0,1,1,389.3,330.8q.242-.008.484,0Z" transform="translate(-285.289 -297.486)" fill="#f2f2f2"/>
    <path id="Path_240" data-name="Path 240" d="M424.169,344.045a.536.536,0,0,1-.535.535H387.814a7.335,7.335,0,1,1,0-14.67h35.819a.535.535,0,0,1,0,1.071H387.814a6.264,6.264,0,1,0,0,12.529h35.819a.536.536,0,0,1,.536.535Z" transform="translate(-283.941 -296.916)" fill="#3f3d56"/>
    <path id="Path_241" data-name="Path 241" d="M432.746,339.414H395.267a.107.107,0,0,1,0-.214h37.481a.107.107,0,1,1,0,.214Z" transform="translate(-293.375 -302.886)" fill="#ccc"/>
    <path id="Path_242" data-name="Path 242" d="M432.746,346.606H395.267a.107.107,0,0,1,0-.214h37.481a.107.107,0,1,1,0,.214Z" transform="translate(-293.375 -307.508)" fill="#ccc"/>
    <path id="Path_243" data-name="Path 243" d="M432.746,353.8H395.267a.107.107,0,0,1,0-.214h37.481a.107.107,0,1,1,0,.214Z" transform="translate(-293.375 -312.129)" fill="#ccc"/>
    <path id="Path_244" data-name="Path 244" d="M432.746,360.989H395.267a.107.107,0,0,1,0-.214h37.481a.107.107,0,1,1,0,.214Z" transform="translate(-293.375 -316.751)" fill="#ccc"/>
    <path id="Path_245" data-name="Path 245" d="M523.836,525.218V513.08a2.023,2.023,0,0,0-2.023-2.023H475.79a2.023,2.023,0,0,0-2.023,2.023v12.138Z" transform="translate(-343.892 -413.328)" fill="#ccc"/>
    <rect id="Rectangle_21" data-name="Rectangle 21" width="50.068" height="15.678" transform="translate(129.875 116.441)" fill="#ccc"/>
    <path id="Path_246" data-name="Path 246" d="M473.768,620.029v12.138a2.023,2.023,0,0,0,2.023,2.023h46.022a2.023,2.023,0,0,0,2.023-2.023V620.029Z" transform="translate(-343.892 -483.358)" fill="#ccc"/>
    <circle id="Ellipse_68" data-name="Ellipse 68" cx="1.517" cy="1.517" r="1.517" transform="translate(153.139 103.798)" fill="#fff"/>
    <circle id="Ellipse_69" data-name="Ellipse 69" cx="1.517" cy="1.517" r="1.517" transform="translate(153.139 124.027)" fill="#fff"/>
    <circle id="Ellipse_70" data-name="Ellipse 70" cx="1.517" cy="1.517" r="1.517" transform="translate(153.221 143.828)" fill="#fff"/>
    <path id="Path_247" data-name="Path 247" d="M522.309,472.323v13.921H487.432a6.965,6.965,0,0,1-.485-13.921q.242-.008.485,0Z" transform="translate(-348.042 -388.434)" fill="#f2f2f2"/>
    <path id="Path_248" data-name="Path 248" d="M521.811,485.567a.536.536,0,0,1-.535.535H485.456a7.335,7.335,0,0,1-.009-14.67h35.828a.535.535,0,0,1,0,1.071H485.456a6.264,6.264,0,1,0,0,12.529h35.819A.535.535,0,0,1,521.811,485.567Z" transform="translate(-346.687 -387.864)" fill="#3f3d56"/>
    <path id="Path_249" data-name="Path 249" d="M530.4,480.935H492.917a.107.107,0,1,1,0-.214H530.4a.107.107,0,0,1,0,.214Z" transform="translate(-356.129 -393.833)" fill="#ccc"/>
    <path id="Path_250" data-name="Path 250" d="M530.4,488.127H492.917a.107.107,0,1,1,0-.214H530.4a.107.107,0,0,1,0,.214Z" transform="translate(-356.129 -398.455)" fill="#ccc"/>
    <path id="Path_251" data-name="Path 251" d="M530.4,495.318H492.917a.107.107,0,1,1,0-.214H530.4a.107.107,0,0,1,0,.214Z" transform="translate(-356.129 -403.076)" fill="#ccc"/>
    <path id="Path_252" data-name="Path 252" d="M530.4,502.51H492.917a.107.107,0,1,1,0-.214H530.4a.107.107,0,0,1,0,.214Z" transform="translate(-356.129 -407.698)" fill="#ccc"/>
    <path id="Path_253" data-name="Path 253" d="M446,317.811h-15.89a.982.982,0,0,0-.435.1l-4.011,2.008a.731.731,0,0,0,0,1.345l4.011,2.008a.982.982,0,0,0,.435.1H446a.834.834,0,0,0,.88-.774v-4.016A.834.834,0,0,0,446,317.811Z" transform="translate(-312.692 -289.14)" fill="#3f3d56"/>
    <path id="Path_254" data-name="Path 254" d="M478.554,318.585V322.6a.834.834,0,0,1-.88.774h-3.166v-5.563h3.166A.834.834,0,0,1,478.554,318.585Z" transform="translate(-344.368 -289.14)" fill="#318e99"/>
    <path id="Path_255" data-name="Path 255" d="M214.385,478.136a12.629,12.629,0,0,0,12.2-2.148c4.271-3.585,5.611-9.491,6.7-14.96l3.223-16.176-6.748,4.646c-4.853,3.341-9.814,6.79-13.174,11.629s-4.826,11.447-2.127,16.683" transform="translate(-176.346 -370.782)" fill="#e6e6e6"/>
    <path id="Path_256" data-name="Path 256" d="M216.482,534.679c-.683-4.975-1.385-10.013-.906-15.041a23.656,23.656,0,0,1,4.561-12.4,20.632,20.632,0,0,1,5.294-4.8c.529-.334,1.017.5.49.837a19.614,19.614,0,0,0-7.759,9.361,31.44,31.44,0,0,0-1.669,13.544c.176,2.76.549,5.5.925,8.241a.5.5,0,0,1-.339.6.488.488,0,0,1-.6-.339Z" transform="translate(-177.866 -407.74)" fill="#f2f2f2"/>
    <path id="Path_257" data-name="Path 257" d="M236.8,550.064a9.3,9.3,0,0,0,8.1,4.181c4.1-.195,7.519-3.057,10.6-5.774l9.1-8.036-6.024-.288c-4.332-.207-8.776-.4-12.9.935s-7.931,4.551-8.686,8.822" transform="translate(-191.608 -431.928)" fill="#e6e6e6"/>
    <path id="Path_258" data-name="Path 258" d="M212.879,573.806c3.287-5.816,7.1-12.281,13.913-14.347a15.525,15.525,0,0,1,5.852-.6c.621.054.466,1.011-.154.958a14.423,14.423,0,0,0-9.339,2.471,24.275,24.275,0,0,0-6.419,6.927c-1.063,1.619-2.015,3.306-2.967,4.991-.3.539-1.194.15-.886-.395Z" transform="translate(-176.193 -444.007)" fill="#f2f2f2"/>
    <path id="Path_259" data-name="Path 259" d="M195.87,601.282a7.04,7.04,0,0,1,4.314-5.9v-3.363h5.64v3.469a7.036,7.036,0,0,1,4.079,5.79l1.326,15.416H194.544Z" transform="translate(-164.452 -465.361)" fill="#f2f2f2"/>
    <path id="Path_260" data-name="Path 260" d="M697.027,395.56l-1.678-.706-1.151-8.411H678.871l-1.247,8.376-1.5.751a.356.356,0,0,0,.159.675h20.606a.356.356,0,0,0,.138-.685Z" transform="translate(-473.807 -333.246)" fill="#e6e6e6"/>
    <path id="Path_261" data-name="Path 261" d="M673.12,367.8H597.831a1.492,1.492,0,0,1-1.488-1.492V355.691h78.266v10.617A1.492,1.492,0,0,1,673.12,367.8Z" transform="translate(-422.664 -313.484)" fill="#ccc"/>
    <path id="Path_262" data-name="Path 262" d="M674.563,284.806H596.15V239.379a1.8,1.8,0,0,1,1.8-1.8h74.817a1.8,1.8,0,0,1,1.8,1.8Z" transform="translate(-422.54 -237.582)" fill="#3f3d56"/>
    <path id="Path_263" data-name="Path 263" d="M675.809,287.439H606.762a1.388,1.388,0,0,1-1.386-1.386V248.194a1.388,1.388,0,0,1,1.386-1.386h69.047a1.388,1.388,0,0,1,1.386,1.386v37.859A1.388,1.388,0,0,1,675.809,287.439Z" transform="translate(-428.469 -243.511)" fill="#fff"/>
    <path id="Path_264" data-name="Path 264" d="M749.131,395.906a4.151,4.151,0,0,1,6.313.812l9.339-1.66,2.393,5.429-13.222,2.16a4.174,4.174,0,0,1-4.824-6.741Z" transform="translate(-519.977 -338.619)" fill="#ffb6b6"/>
    <path id="Path_265" data-name="Path 265" d="M775.776,367.717l9.736-.121,1.233-.017,19.809-.25s5.379-5.132,10.064-10.416l-.657-4.749a19.4,19.4,0,0,0-6.505-12.012c-6.709,4.483-10.6,13.356-10.6,13.356l-12.282,2.938-1.229.294-7.632,1.824Z" transform="translate(-537.975 -303.498)" fill="#318e99"/>
    <path id="Path_266" data-name="Path 266" d="M841.756,498.962H823.582c0,.779-19.867,1.411-19.867,1.411a7.255,7.255,0,0,0-1.191,1.129,7,7,0,0,0-1.637,4.514v1.129a7.056,7.056,0,0,0,7.054,7.054h33.815a7.06,7.06,0,0,0,7.054-7.054v-1.129A7.064,7.064,0,0,0,841.756,498.962Z" transform="translate(-554.113 -405.556)" fill="#e4e4e4"/>
    <rect id="Rectangle_22" data-name="Rectangle 22" width="7.336" height="42.343" transform="translate(267.091 108.362)" fill="#e4e4e4"/>
    <path id="Path_267" data-name="Path 267" d="M799.312,645.852c0,.793,11.116.307,24.829.307s24.829.486,24.829-.307-11.117-7.078-24.829-7.078S799.312,645.06,799.312,645.852Z" transform="translate(-553.1 -495.405)" fill="#e4e4e4"/>
    <path id="Path_268" data-name="Path 268" d="M660.7,369.59h-5.46l-2.6-21.059H660.7Z" transform="translate(-419.413 -223.981)" fill="#ffb6b6"/>
    <path id="Path_269" data-name="Path 269" d="M757.761,647.128h-17.6V646.9a6.852,6.852,0,0,1,6.852-6.852h10.753Z" transform="translate(-515.085 -496.227)" fill="#2f2e41"/>
    <path id="Path_270" data-name="Path 270" d="M615.542,369.59h-5.46l-2.6-21.059h8.058Z" transform="translate(-390.395 -223.981)" fill="#ffb6b6"/>
    <path id="Path_271" data-name="Path 271" d="M712.606,647.128H695V646.9a6.852,6.852,0,0,1,6.852-6.852h10.753Z" transform="translate(-486.066 -496.227)" fill="#2f2e41"/>
    <circle id="Ellipse_71" data-name="Ellipse 71" cx="9.493" cy="9.493" r="9.493" transform="translate(264.561 5.386)" fill="#ffb6b6"/>
    <path id="Path_272" data-name="Path 272" d="M817.79,455.808s3.185,16.843-8.934,18.987-29.613,3.652-29.613,3.652L771.387,515.1l-10.554-.942s1.4-44.122,4.856-47.574,25.27-13.788,25.27-13.788Z" transform="translate(-528.372 -375.888)" fill="#2f2e41"/>
    <path id="Path_273" data-name="Path 273" d="M764.23,441.471l-5.3,5.318s-38.271,6.164-39.748,15c-2.229,13.345-4.862,42.366-4.862,42.366l11.507-.863,4.512-32.988,18.41-4.188L769.7,454.7Z" transform="translate(-498.481 -368.61)" fill="#2f2e41"/>
    <path id="Path_274" data-name="Path 274" d="M867.755,251.062c-.937-1.768-2.128-5.292-4.019-5.945a15.039,15.039,0,0,0-3.237-.69l-3.215,1.236,1.75-1.361q-.511-.03-1.021-.05l-2.169.834,1.11-.863a8.861,8.861,0,0,0-5.677,1.421c-1.336,1.049-2.659,5.025-2.873,6.71a12.837,12.837,0,0,0,.236,4.835l.549.522a6.741,6.741,0,0,0,.431-1.372,6.5,6.5,0,0,1,3.11-4.219l.03-.017a5.83,5.83,0,0,1,3.1-.457l5.018.181A4.272,4.272,0,0,1,865.7,254.7a42.278,42.278,0,0,1,1.382,4.5s.517-.672.765-.172a17.3,17.3,0,0,0,.72-4.014A7.865,7.865,0,0,0,867.755,251.062Z" transform="translate(-584.566 -241.85)" fill="#2f2e41"/>
    <path id="Path_275" data-name="Path 275" d="M975.21,290.863A4.151,4.151,0,0,0,971.453,296l-7.634,5.631,2.29,5.474,10.669-8.1a4.173,4.173,0,0,0-1.568-8.139Z" transform="translate(-658.82 -271.816)" fill="#ffb6b6"/>
    <path id="Path_276" data-name="Path 276" d="M921.22,312.69l-19.137,21.254s-9.152-2.93-16.229-6.106l-3.18-9.766a19.422,19.422,0,0,1-.93-7.027c9.812-2.611,21.224,7.1,21.224,7.1l14.325-11.221Z" transform="translate(-606.058 -282.147)" fill="#318e99"/>
    <path id="Path_277" data-name="Path 277" d="M847.67,368.781a51.813,51.813,0,0,0-10.753-2.857l-.164-.02.045-.158c3.942-13.841,2.958-22.695,1.026-35.994a13.433,13.433,0,0,1,7.7-14.116l.023-.011,10.876-.691h.025l7.91,2.326a5.426,5.426,0,0,1,3.883,5.3c-.086,4.374.1,9.257.289,14.427.432,11.6.878,23.592-1.655,31.373l-.013.041-.034.027a12.9,12.9,0,0,1-8.248,2.9C855.032,371.324,851.409,370.072,847.67,368.781Z" transform="translate(-577.162 -287.291)" fill="#318e99"/>
    <path id="Path_278" data-name="Path 278" d="M459.8,660.6H110.843a.506.506,0,0,1,0-1.012H459.8a.506.506,0,0,1,0,1.011Z" transform="translate(-110.337 -508.78)" fill="#ccc"/>
  </g>
</svg>
