<svg xmlns="http://www.w3.org/2000/svg" width="291.255" height="226.192" viewBox="0 0 291.255 226.192">
  <g id="Group_5" data-name="Group 5" transform="translate(0 0)">
    <circle id="Ellipse_14" data-name="Ellipse 14" cx="11.867" cy="11.867" r="11.867" transform="translate(153.975 86.868)" fill="#e6e6e6"/>
    <path id="Path_89" data-name="Path 89" d="M679.472,375.567l-12.4-12.4a13.134,13.134,0,1,0-3.945,3.945l12.4,12.4a2.789,2.789,0,1,0,3.945-3.945ZM662.663,362.7a9.393,9.393,0,1,1,2.751-6.642A9.393,9.393,0,0,1,662.663,362.7Z" transform="translate(-484.547 -261.582)" fill="#3f3d56"/>
    <path id="Path_90" data-name="Path 90" d="M427.344,200.769c31.714,35.072-60.219,85.616-134.5,85.616s-125.677-39.163-134.5-85.616c-21.4-112.634,182.337-184.223,134.5-85.616C223.117,258.884,402.369,173.149,427.344,200.769Z" transform="translate(-142.527 -68.493)" fill="#e6e6e6"/>
    <path id="Path_91" data-name="Path 91" d="M379.344,228.769c31.714,35.072-60.219,85.616-134.5,85.616s-125.677-39.163-134.5-85.616c-21.4-112.634,182.337-184.223,134.5-85.616C175.117,286.884,354.369,201.149,379.344,228.769Z" transform="translate(-108.756 -88.193)" fill="#3f3d56"/>
    <path id="Path_92" data-name="Path 92" d="M165.119,223.217c-22.253-.98-39.508-5.78-39.281-10.928.136-3.087,6.434-5.569,17.279-6.809a.3.3,0,0,1,.067.589c-10.216,1.169-16.636,3.562-16.754,6.246-.2,4.656,17.524,9.377,38.715,10.31s39.266-2.212,39.471-6.867c.119-2.7-6.106-5.652-16.245-7.716a.3.3,0,0,1,.118-.581c10.761,2.191,16.855,5.225,16.719,8.323C204.982,220.932,187.373,224.2,165.119,223.217Z" transform="translate(-120.773 -164.869)" fill="#318e99"/>
    <path id="Path_93" data-name="Path 93" d="M191.679,268.227a22.821,22.821,0,0,0,39.438,1.637,359.284,359.284,0,0,1-39.438-1.637Z" transform="translate(-167.097 -209.017)" fill="#318e99"/>
    <path id="Path_94" data-name="Path 94" d="M227.453,181.408a22.825,22.825,0,1,0-43.8-1.691,169.637,169.637,0,0,0,43.8,1.691Z" transform="translate(-160.972 -126.796)" fill="#318e99"/>
    <circle id="Ellipse_15" data-name="Ellipse 15" cx="2.668" cy="2.668" r="2.668" transform="translate(47.382 33.973)" fill="#fff"/>
    <circle id="Ellipse_16" data-name="Ellipse 16" cx="4.447" cy="4.447" r="4.447" transform="translate(31.872 40.788)" fill="#fff"/>
    <circle id="Ellipse_17" data-name="Ellipse 17" cx="2.964" cy="2.964" r="2.964" transform="translate(100.467 39.397)" fill="#318e99"/>
    <circle id="Ellipse_18" data-name="Ellipse 18" cx="1.779" cy="1.779" r="1.779" transform="translate(34.656 132.481)" fill="#e6e6e6"/>
    <circle id="Ellipse_19" data-name="Ellipse 19" cx="1.779" cy="1.779" r="1.779" transform="translate(159.163 193.549)" fill="#e6e6e6"/>
    <circle id="Ellipse_20" data-name="Ellipse 20" cx="0.889" cy="0.889" r="0.889" transform="translate(44.142 99.872)" fill="#e6e6e6"/>
    <circle id="Ellipse_21" data-name="Ellipse 21" cx="0.889" cy="0.889" r="0.889" transform="translate(117.661 166.276)" fill="#e6e6e6"/>
    <circle id="Ellipse_22" data-name="Ellipse 22" cx="0.889" cy="0.889" r="0.889" transform="translate(251.358 157.679)" fill="#e6e6e6"/>
    <circle id="Ellipse_23" data-name="Ellipse 23" cx="0.889" cy="0.889" r="0.889" transform="translate(209.559 184.063)" fill="#e6e6e6"/>
    <circle id="Ellipse_24" data-name="Ellipse 24" cx="0.889" cy="0.889" r="0.889" transform="translate(165.982 152.047)" fill="#e6e6e6"/>
    <circle id="Ellipse_25" data-name="Ellipse 25" cx="0.889" cy="0.889" r="0.889" transform="translate(109.657 64.299)" fill="#e6e6e6"/>
    <circle id="Ellipse_26" data-name="Ellipse 26" cx="0.889" cy="0.889" r="0.889" transform="translate(116.772 20.425)" fill="#e6e6e6"/>
    <circle id="Ellipse_27" data-name="Ellipse 27" cx="0.889" cy="0.889" r="0.889" transform="translate(112.621 205.11)" fill="#e6e6e6"/>
    <circle id="Ellipse_28" data-name="Ellipse 28" cx="0.889" cy="0.889" r="0.889" transform="translate(68.747 186.434)" fill="#e6e6e6"/>
    <circle id="Ellipse_29" data-name="Ellipse 29" cx="0.889" cy="0.889" r="0.889" transform="translate(207.78 154.418)" fill="#e6e6e6"/>
    <circle id="Ellipse_30" data-name="Ellipse 30" cx="2.668" cy="2.668" r="2.668" transform="translate(41.317 63.973)" fill="#fff"/>
    <path id="Path_95" data-name="Path 95" d="M380.456,391.288c0,7.969-12.32,26.537-15.921,31.793a1.183,1.183,0,0,1-1.954,0c-3.6-5.256-15.921-23.824-15.921-31.793a16.9,16.9,0,1,1,33.795,0Z" transform="translate(-276.135 -283.709)" fill="#fff"/>
    <circle id="Ellipse_31" data-name="Ellipse 31" cx="8.597" cy="8.597" r="8.597" transform="translate(78.826 97.797)" fill="#318e99"/>
    <ellipse id="Ellipse_32" data-name="Ellipse 32" cx="9.931" cy="1.927" rx="9.931" ry="1.927" transform="translate(77.344 145.228)" fill="#fff"/>
    <path id="Path_96" data-name="Path 96" d="M875.34,382.454a3.118,3.118,0,0,0-.19.453l-14.165,3.936-2.553-2.5-4.274,3.36,4.089,4.861a2.371,2.371,0,0,0,2.773.643l15.3-6.754a3.112,3.112,0,1,0-.982-4Z" transform="translate(-633.187 -288.208)" fill="#ffb8b8"/>
    <path id="Path_97" data-name="Path 97" d="M848.5,382.824l-5.317,4.138a1.334,1.334,0,0,1-1.981-.4l-3.3-5.848a3.7,3.7,0,0,1,5.861-4.534l4.843,4.623a1.334,1.334,0,0,1-.1,2.017Z" transform="translate(-621.203 -283.958)" fill="#318e99"/>
    <path id="Path_98" data-name="Path 98" d="M914.34,379.614l5.392,2.426a.933.933,0,0,1,.468,1.234l-.638,1.419a.312.312,0,0,1,.156.411l-.255.568a.312.312,0,0,1-.411.156l-.255.568a.312.312,0,0,1,.156.411l-.255.568a.312.312,0,0,1-.411.156l-3.447,7.662a.934.934,0,0,1-1.234.468l-5.392-2.426a.934.934,0,0,1-.468-1.234l5.362-11.919a.934.934,0,0,1,1.234-.468Z" transform="translate(-670.829 -287.326)" fill="#3f3d56"/>
    <path id="Path_99" data-name="Path 99" d="M911.572,395.414l4.325,1.948a.9.9,0,0,0,1.186-.448l2-4.444.694-1.54,1.808-4.02a.9.9,0,0,0-.448-1.182l-1.36-.613-2.969-1.335a.9.9,0,0,0-1.182.451l-1.749,3.887-1.992,4.425-.759,1.69A.9.9,0,0,0,911.572,395.414Z" transform="translate(-673.21 -290.258)" fill="#f2f2f2"/>
    <path id="Path_100" data-name="Path 100" d="M773.576,507.173h3.634l1.729-14.018h-5.364Z" transform="translate(-544.252 -346.96)" fill="#ffb8b8"/>
    <path id="Path_101" data-name="Path 101" d="M879.207,604.932h7.158a4.561,4.561,0,0,1,4.561,4.561v.148H879.207Z" transform="translate(-650.81 -445.907)" fill="#2f2e41"/>
    <path id="Path_102" data-name="Path 102" d="M805.576,504.173h3.634l1.729-14.018h-5.364Z" transform="translate(-566.765 -344.85)" fill="#ffb8b8"/>
    <path id="Path_103" data-name="Path 103" d="M911.207,601.932h7.157a4.561,4.561,0,0,1,4.561,4.561v.148H911.207Z" transform="translate(-673.324 -443.796)" fill="#2f2e41"/>
    <path id="Path_104" data-name="Path 104" d="M825.642,465.741a11.683,11.683,0,0,0,10.939,7.948l.184,0a16.441,16.441,0,0,0,6.24-1.42,53.157,53.157,0,0,0,9.457-5.22l-1.844,17.724-.747,7.186a1.338,1.338,0,0,0,1.328,1.473h4.6a1.336,1.336,0,0,0,1.293-1l7.6-28.948a5.642,5.642,0,0,0-5.843-7.064l-15.789,1.082,1.1-4.411-14.093-.937-.041.03c-.338.246-.667.5-.981.774a11.942,11.942,0,0,0-2.072,2.271A11.41,11.41,0,0,0,825.642,465.741Z" transform="translate(-612.621 -338.424)" fill="#2f2e41"/>
    <path id="Path_105" data-name="Path 105" d="M825.642,473.037a11.683,11.683,0,0,0,10.939,7.948,58.147,58.147,0,0,0,6.691-3.969l-.267,2.552-2.324,22.358a1.338,1.338,0,0,0,1.328,1.473h4.6a1.335,1.335,0,0,0,1.292-1l2.713-10.331,4.888-18.617a5.642,5.642,0,0,0-5.843-7.064l-15.789,1.082,1.1-4.411-8-.531A11.41,11.41,0,0,0,825.642,473.037Z" transform="translate(-612.621 -345.72)" fill="#2f2e41"/>
    <path id="Path_106" data-name="Path 106" d="M831.9,387.171l-.106-.013-2.459-12.091c-.021-.1-2.031-10.534,4.132-15.986l.107-.746a1.334,1.334,0,0,1,1.716-1.084l5.806,1.8a1.331,1.331,0,0,1,.895,1.613l-.564,2.147c.783.919,9.995,12.01,6.786,20.554l-1.437,5.618Z" transform="translate(-615.492 -271.608)" fill="#318e99"/>
    <path id="Path_107" data-name="Path 107" d="M870.47,409.955a3.128,3.128,0,0,0-.394.294l-14.2-3.812-.928-3.449-5.388.721,1.05,6.265a2.371,2.371,0,0,0,2.061,1.963l16.611,1.962a3.112,3.112,0,1,0,1.188-3.944Z" transform="translate(-629.952 -303.828)" fill="#ffb8b8"/>
    <path id="Path_108" data-name="Path 108" d="M849.593,387.449l-6.682.861a1.334,1.334,0,0,1-1.5-1.348l.127-6.716a3.7,3.7,0,0,1,7.352-.925l1.821,6.443a1.334,1.334,0,0,1-1.113,1.685Z" transform="translate(-624.215 -284.896)" fill="#318e99"/>
    <circle id="Ellipse_33" data-name="Ellipse 33" cx="7.281" cy="7.281" r="7.281" transform="translate(216.216 69.44)" fill="#ffb8b8"/>
    <path id="Path_109" data-name="Path 109" d="M824.218,303.8l-.911-1.66A19.888,19.888,0,0,0,824.63,315l-11.838-5.514.113-1.957-1.171,1.329-1.683-.927-.222-1.269-1.271.315,4.638-8.415c4.5-8.008,11.044-4.951,11.044-4.951,10.41-.495,9.138,9.775,9.138,9.775Z" transform="translate(-601.104 -226.471)" fill="#2f2e41"/>
    <ellipse id="Ellipse_34" data-name="Ellipse 34" cx="3.611" cy="14.081" rx="3.611" ry="14.081" transform="matrix(0.842, -0.54, 0.54, 0.842, 121.992, 109.827)" fill="#3f3d56"/>
  </g>
</svg>
