<svg xmlns="http://www.w3.org/2000/svg" data-name="Layer 1" viewBox="0 0 128 160" x="0px" y="0px"><title>expandlines</title><path d="M6,42H94a6.00656,6.00656,0,0,0,6-6V18a2,2,0,0,0-4,0v9H84V18a2,2,0,0,0-4,0v9H68V18a2,2,0,0,0-4,0v9H52V18a2,2,0,0,0-4,0v9H36V18a2,2,0,0,0-4,0v9H20V18a2,2,0,0,0-4,0v9H4V2A2,2,0,0,0,0,2V36A6.00656,6.00656,0,0,0,6,42ZM96,31v5a2.00229,2.00229,0,0,1-2,2H84V31ZM80,31v7H68V31ZM64,31v7H52V31ZM48,31v7H36V31ZM32,31v7H20V31ZM16,31v7H6a2.00229,2.00229,0,0,1-2-2V31Z"/><path d="M126,0a2.0001,2.0001,0,0,0-2,2V58.70605H97.31249a2.00011,2.00011,0,0,0-2,2V75.10742H64.667a2.00009,2.00009,0,0,0-2,2V91.59668H32.39941a2.0001,2.0001,0,0,0-2,2v14.06641H4a4.004,4.004,0,0,0-4,4V124a4.004,4.004,0,0,0,4,4H124a2,2,0,0,0,0-4H4V111.66309H32.39941a2.0001,2.0001,0,0,0,2-2V95.59668H64.667a2.0001,2.0001,0,0,0,2-2V79.10742H97.31249a2.00009,2.00009,0,0,0,2-2V62.70605H126a2.0001,2.0001,0,0,0,2-2V2A2.0001,2.0001,0,0,0,126,0Z"/><path d="M108,26h8a2,2,0,0,0,0-4h-8a2,2,0,0,0,0,4Z"/><path d="M108,34h8a2,2,0,0,0,0-4h-8a2,2,0,0,0,0,4Z"/><text x="0" y="143" fill="#000000" font-size="5px" font-weight="bold" font-family="'Helvetica Neue', Helvetica, Arial-Unicode, Arial, Sans-serif">Created by priyanka</text><text x="0" y="148" fill="#000000" font-size="5px" font-weight="bold" font-family="'Helvetica Neue', Helvetica, Arial-Unicode, Arial, Sans-serif">from the Noun Project</text></svg>